<svg xmlns="http://www.w3.org/2000/svg"><symbol id="youtube" viewBox="0 0 24 24" fill="currentColor"><path d="M19.607 6.995c-.076-.298-.292-.523-.539-.592C18.63 6.28 16.501 6 12.001 6s-6.628.28-7.069.403c-.244.068-.46.293-.537.592-.109.424-.394 2.2-.394 5.005 0 2.804.285 4.58.394 5.006.076.297.292.522.538.59C5.373 17.72 7.5 18 12 18s6.629-.28 7.069-.403c.244-.068.46-.293.537-.592C19.716 16.581 20 14.8 20 12s-.285-4.58-.394-5.005Zm1.937-.497c.457 1.782.457 5.502.457 5.502s0 3.72-.457 5.502c-.254.985-.997 1.76-1.938 2.022C17.897 20 12 20 12 20s-5.893 0-7.605-.476c-.945-.266-1.687-1.04-1.938-2.022C2 15.72 2 12 2 12s0-3.72.457-5.502c.254-.985.997-1.76 1.938-2.022C6.108 4 12.001 4 12.001 4s5.896 0 7.605.476c.944.266 1.687 1.04 1.938 2.022ZM10.001 15.5v-7l6 3.5-6 3.5Z"/></symbol><symbol id="align-center" viewBox="0 0 24 24"><path d="M3 4H21V6H3V4ZM5 19H19V21H5V19ZM3 14H21V16H3V14ZM5 9H19V11H5V9Z"/></symbol><symbol id="align-left" viewBox="0 0 24 24"><path d="M3 4H21V6H3V4ZM3 19H17V21H3V19ZM3 14H21V16H3V14ZM3 9H17V11H3V9Z"/></symbol><symbol id="align-right" viewBox="0 0 24 24"><path d="M3 4H21V6H3V4ZM7 19H21V21H7V19ZM3 14H21V16H3V14ZM7 9H21V11H7V9Z"/></symbol><symbol id="bold" viewBox="0 0 24 24"><path d="M8 11H12.5C13.8807 11 15 9.88071 15 8.5C15 7.11929 13.8807 6 12.5 6H8V11ZM18 15.5C18 17.9853 15.9853 20 13.5 20H6V4H12.5C14.9853 4 17 6.01472 17 8.5C17 9.70431 16.5269 10.7981 15.7564 11.6058C17.0979 12.3847 18 13.837 18 15.5ZM8 13V18H13.5C14.8807 18 16 16.8807 16 15.5C16 14.1193 14.8807 13 13.5 13H8Z"/></symbol><symbol id="check-line" viewBox="0 0 24 24"><path d="M9.9997 15.1709L19.1921 5.97852L20.6063 7.39273L9.9997 17.9993L3.63574 11.6354L5.04996 10.2212L9.9997 15.1709Z"/></symbol><symbol id="delete-back-line" viewBox="0 0 24 24"><path d="M6.53451 3H20.9993C21.5516 3 21.9993 3.44772 21.9993 4V20C21.9993 20.5523 21.5516 21 20.9993 21H6.53451C6.20015 21 5.88792 20.8329 5.70246 20.5547L0.369122 12.5547C0.145189 12.2188 0.145189 11.7812 0.369122 11.4453L5.70246 3.4453C5.88792 3.1671 6.20015 3 6.53451 3ZM7.06969 5L2.40302 12L7.06969 19H19.9993V5H7.06969ZM12.9993 10.5858L15.8277 7.75736L17.242 9.17157L14.4135 12L17.242 14.8284L15.8277 16.2426L12.9993 13.4142L10.1709 16.2426L8.75668 14.8284L11.5851 12L8.75668 9.17157L10.1709 7.75736L12.9993 10.5858Z"/></symbol><symbol id="delete-bin-line" viewBox="0 0 24 24"><path d="M17 6H22V8H20V21C20 21.5523 19.5523 22 19 22H5C4.44772 22 4 21.5523 4 21V8H2V6H7V3C7 2.44772 7.44772 2 8 2H16C16.5523 2 17 2.44772 17 3V6ZM18 8H6V20H18V8ZM13.4142 13.9997L15.182 15.7675L13.7678 17.1817L12 15.4139L10.2322 17.1817L8.81802 15.7675L10.5858 13.9997L8.81802 12.232L10.2322 10.8178L12 12.5855L13.7678 10.8178L15.182 12.232L13.4142 13.9997ZM9 4V6H15V4H9Z"/></symbol><symbol id="delete-column" viewBox="0 0 24 24"><path d="M12 3C12.5523 3 13 3.44772 13 4L12.9998 11.9998C13.8355 11.372 14.8743 11 16 11C18.7614 11 21 13.2386 21 16C21 18.7614 18.7614 21 16 21C14.9681 21 14.0092 20.6874 13.2129 20.1518L13 20C13 20.5523 12.5523 21 12 21H6C5.44772 21 5 20.5523 5 20V4C5 3.44772 5.44772 3 6 3H12ZM11 5H7V19H11V5ZM19 15H13V17H19V15Z"/></symbol><symbol id="delete-row" viewBox="0 0 24 24"><path d="M20 5C20.5523 5 21 5.44772 21 6V12C21 12.5523 20.5523 13 20 13C20.628 13.8355 21 14.8743 21 16C21 18.7614 18.7614 21 16 21C13.2386 21 11 18.7614 11 16C11 14.8743 11.372 13.8355 11.9998 12.9998L4 13C3.44772 13 3 12.5523 3 12V6C3 5.44772 3.44772 5 4 5H20ZM13 15V17H19V15H13ZM19 7H5V11H19V7Z"/></symbol><symbol id="float-left" viewBox="0 0 512 512"><!--!Font Awesome Pro 6.5.1 by @fontawesome - https://fontawesome.com License - https://fontawesome.com/license (Commercial License) Copyright 2024 Fonticons, Inc.--><path d="M0 512L0 0 48 0l0 512L0 512zM176 176l288 0 0-64-288 0 0 64zm-48-64l0-48 48 0 288 0 48 0 0 48 0 64 0 48-48 0-288 0-48 0 0-48 0-64zm48 288l160 0 0-64-160 0 0 64zm-48-64l0-48 48 0 160 0 48 0 0 48 0 64 0 48-48 0-160 0-48 0 0-48 0-64z"/></symbol><symbol id="float-right" viewBox="0 0 512 512"><!--!Font Awesome Pro 6.5.1 by @fontawesome - https://fontawesome.com License - https://fontawesome.com/license (Commercial License) Copyright 2024 Fonticons, Inc.--><path d="M512 512L512 0 464 0l0 512 48 0zM336 176L48 176l0-64 288 0 0 64zm48-64l0-48-48 0L48 64 0 64l0 48 0 64 0 48 48 0 288 0 48 0 0-48 0-64zM336 400l-160 0 0-64 160 0 0 64zm48-64l0-48-48 0-160 0-48 0 0 48 0 64 0 48 48 0 160 0 48 0 0-48 0-64z"/></symbol><symbol id="format-clear" viewBox="0 0 24 24"><path d="M12.6512 14.0654L11.6047 20H9.57389L10.9247 12.339L3.51465 4.92892L4.92886 3.51471L20.4852 19.0711L19.071 20.4853L12.6512 14.0654ZM11.7727 7.53009L12.0425 5.99999H10.2426L8.24257 3.99999H19.9999V5.99999H14.0733L13.4991 9.25652L11.7727 7.53009Z"/></symbol><symbol id="h1" viewBox="0 0 24 24"><path d="M13 20H11V13H4V20H2V4H4V11H11V4H13V20ZM21.0005 8V20H19.0005L19 10.204L17 10.74V8.67L19.5005 8H21.0005Z"/></symbol><symbol id="h2" viewBox="0 0 24 24"><path d="M4 4V11H11V4H13V20H11V13H4V20H2V4H4ZM18.5 8C20.5711 8 22.25 9.67893 22.25 11.75C22.25 12.6074 21.9623 13.3976 21.4781 14.0292L21.3302 14.2102L18.0343 18H22V20H15L14.9993 18.444L19.8207 12.8981C20.0881 12.5908 20.25 12.1893 20.25 11.75C20.25 10.7835 19.4665 10 18.5 10C17.5818 10 16.8288 10.7071 16.7558 11.6065L16.75 11.75H14.75C14.75 9.67893 16.4289 8 18.5 8Z"/></symbol><symbol id="h3" viewBox="0 0 24 24"><path d="M22 8L21.9984 10L19.4934 12.883C21.0823 13.3184 22.25 14.7728 22.25 16.5C22.25 18.5711 20.5711 20.25 18.5 20.25C16.674 20.25 15.1528 18.9449 14.8184 17.2166L16.7821 16.8352C16.9384 17.6413 17.6481 18.25 18.5 18.25C19.4665 18.25 20.25 17.4665 20.25 16.5C20.25 15.5335 19.4665 14.75 18.5 14.75C18.214 14.75 17.944 14.8186 17.7056 14.9403L16.3992 13.3932L19.3484 10H15V8H22ZM4 4V11H11V4H13V20H11V13H4V20H2V4H4Z"/></symbol><symbol id="h4" viewBox="0 0 24 24"><path d="M13 20H11V13H4V20H2V4H4V11H11V4H13V20ZM22 8V16H23.5V18H22V20H20V18H14.5V16.66L19.5 8H22ZM20 11.133L17.19 16H20V11.133Z"/></symbol><symbol id="image-alt" viewBox="0 0 25 24"><path fill="#000" fill-rule="evenodd" d="M7.21 22h1.7l.43-1.37h2.26l.43 1.37h1.7l-2.2-6.55H9.42L7.22 22Zm4.01-2.58-.72-2.32h-.05l-.73 2.32h1.5Z" clip-rule="evenodd"/><path fill="#000" d="M14.44 22v-6.55h1.58v5.27h2.72V22h-4.3Zm4.11-5.26v-1.29h5.53v1.29H22.1V22h-1.56v-5.26h-2Z"/><path fill="#000" fill-rule="evenodd" d="M21 3a1 1 0 0 1 1 1v9h-2V5H4v14l3.98-4-2.01 6H2.99A1 1 0 0 1 2 20V4a1 1 0 0 1 1-1h18Zm-4.87 10.95L14 11.83l-2.13 2.12H9.04L14 9l3 3v1.95h-.87ZM8 7a2 2 0 1 1 0 4 2 2 0 0 1 0-4Z" clip-rule="evenodd"/></symbol><symbol id="image" viewBox="0 0 24 24"><path d="M2.9918 21C2.44405 21 2 20.5551 2 20.0066V3.9934C2 3.44476 2.45531 3 2.9918 3H21.0082C21.556 3 22 3.44495 22 3.9934V20.0066C22 20.5552 21.5447 21 21.0082 21H2.9918ZM20 15V5H4V19L14 9L20 15ZM20 17.8284L14 11.8284L6.82843 19H20V17.8284ZM8 11C6.89543 11 6 10.1046 6 9C6 7.89543 6.89543 7 8 7C9.10457 7 10 7.89543 10 9C10 10.1046 9.10457 11 8 11Z"/></symbol><symbol id="insert-column-left" viewBox="0 0 24 24"><path d="M20 3C20.5523 3 21 3.44772 21 4V20C21 20.5523 20.5523 21 20 21H14C13.4477 21 13 20.5523 13 20V4C13 3.44772 13.4477 3 14 3H20ZM19 5H15V19H19V5ZM6 7C8.76142 7 11 9.23858 11 12C11 14.7614 8.76142 17 6 17C3.23858 17 1 14.7614 1 12C1 9.23858 3.23858 7 6 7ZM7 9H5V10.999L3 11V13L5 12.999V15H7V12.999L9 13V11L7 10.999V9Z"/></symbol><symbol id="insert-column-right" viewBox="0 0 24 24"><path d="M10 3C10.5523 3 11 3.44772 11 4V20C11 20.5523 10.5523 21 10 21H4C3.44772 21 3 20.5523 3 20V4C3 3.44772 3.44772 3 4 3H10ZM9 5H5V19H9V5ZM18 7C20.7614 7 23 9.23858 23 12C23 14.7614 20.7614 17 18 17C15.2386 17 13 14.7614 13 12C13 9.23858 15.2386 7 18 7ZM19 9H17V10.999L15 11V13L17 12.999V15H19V12.999L21 13V11L19 10.999V9Z"/></symbol><symbol id="insert-row-bottom" viewBox="0 0 24 24"><path d="M12 13C14.7614 13 17 15.2386 17 18C17 20.7614 14.7614 23 12 23C9.23858 23 7 20.7614 7 18C7 15.2386 9.23858 13 12 13ZM13 15H11V16.999L9 17V19L11 18.999V21H13V18.999L15 19V17L13 16.999V15ZM20 3C20.5523 3 21 3.44772 21 4V10C21 10.5523 20.5523 11 20 11H4C3.44772 11 3 10.5523 3 10V4C3 3.44772 3.44772 3 4 3H20ZM5 5V9H19V5H5Z"/></symbol><symbol id="insert-row-top" viewBox="0 0 24 24"><path d="M20 13C20.5523 13 21 13.4477 21 14V20C21 20.5523 20.5523 21 20 21H4C3.44772 21 3 20.5523 3 20V14C3 13.4477 3.44772 13 4 13H20ZM19 15H5V19H19V15ZM12 1C14.7614 1 17 3.23858 17 6C17 8.76142 14.7614 11 12 11C9.23858 11 7 8.76142 7 6C7 3.23858 9.23858 1 12 1ZM13 3H11V4.999L9 5V7L11 6.999V9H13V6.999L15 7V5L13 4.999V3Z"/></symbol><symbol id="italic" viewBox="0 0 24 24"><path d="M15 20H7V18H9.92661L12.0425 6H9V4H17V6H14.0734L11.9575 18H15V20Z"/></symbol><symbol id="link-unlink" viewBox="0 0 24 24"><path d="M17 17H22V19H19V22H17V17ZM7 7H2V5H5V2H7V7ZM18.364 15.5355L16.9497 14.1213L18.364 12.7071C20.3166 10.7545 20.3166 7.58866 18.364 5.63604C16.4113 3.68342 13.2455 3.68342 11.2929 5.63604L9.87868 7.05025L8.46447 5.63604L9.87868 4.22183C12.6123 1.48816 17.0445 1.48816 19.7782 4.22183C22.5118 6.9555 22.5118 11.3877 19.7782 14.1213L18.364 15.5355ZM15.5355 18.364L14.1213 19.7782C11.3877 22.5118 6.9555 22.5118 4.22183 19.7782C1.48816 17.0445 1.48816 12.6123 4.22183 9.87868L5.63604 8.46447L7.05025 9.87868L5.63604 11.2929C3.68342 13.2455 3.68342 16.4113 5.63604 18.364C7.58866 20.3166 10.7545 20.3166 12.7071 18.364L14.1213 16.9497L15.5355 18.364ZM14.8284 7.75736L16.2426 9.17157L9.17157 16.2426L7.75736 14.8284L14.8284 7.75736Z"/></symbol><symbol id="link" viewBox="0 0 24 24"><path d="M18.3638 15.5355L16.9496 14.1213L18.3638 12.7071C20.3164 10.7545 20.3164 7.58866 18.3638 5.63604C16.4112 3.68341 13.2453 3.68341 11.2927 5.63604L9.87849 7.05025L8.46428 5.63604L9.87849 4.22182C12.6122 1.48815 17.0443 1.48815 19.778 4.22182C22.5117 6.95549 22.5117 11.3876 19.778 14.1213L18.3638 15.5355ZM15.5353 18.364L14.1211 19.7782C11.3875 22.5118 6.95531 22.5118 4.22164 19.7782C1.48797 17.0445 1.48797 12.6123 4.22164 9.87868L5.63585 8.46446L7.05007 9.87868L5.63585 11.2929C3.68323 13.2455 3.68323 16.4113 5.63585 18.364C7.58847 20.3166 10.7543 20.3166 12.7069 18.364L14.1211 16.9497L15.5353 18.364ZM14.8282 7.75736L16.2425 9.17157L9.17139 16.2426L7.75717 14.8284L14.8282 7.75736Z"/></symbol><symbol id="list-ordered" viewBox="0 0 24 24"><path d="M8 4H21V6H8V4ZM5 3V6H6V7H3V6H4V4H3V3H5ZM3 14V11.5H5V11H3V10H6V12.5H4V13H6V14H3ZM5 19.5H3V18.5H5V18H3V17H6V21H3V20H5V19.5ZM8 11H21V13H8V11ZM8 18H21V20H8V18Z"/></symbol><symbol id="list-unordered" viewBox="0 0 24 24"><path d="M8 4H21V6H8V4ZM4.5 6.5C3.67157 6.5 3 5.82843 3 5C3 4.17157 3.67157 3.5 4.5 3.5C5.32843 3.5 6 4.17157 6 5C6 5.82843 5.32843 6.5 4.5 6.5ZM4.5 13.5C3.67157 13.5 3 12.8284 3 12C3 11.1716 3.67157 10.5 4.5 10.5C5.32843 10.5 6 11.1716 6 12C6 12.8284 5.32843 13.5 4.5 13.5ZM4.5 20.4C3.67157 20.4 3 19.7284 3 18.9C3 18.0716 3.67157 17.4 4.5 17.4C5.32843 17.4 6 18.0716 6 18.9C6 19.7284 5.32843 20.4 4.5 20.4ZM8 11H21V13H8V11ZM8 18H21V20H8V18Z"/></symbol><symbol id="merge-cells" viewBox="0 0 24 24"><path d="M20 3C20.5523 3 21 3.44772 21 4V20C21 20.5523 20.5523 21 20 21H4C3.44772 21 3 20.5523 3 20V4C3 3.44772 3.44772 3 4 3H20ZM11 5H5V10.999H7V9L10 12L7 15V13H5V19H11V17H13V19H19V13H17V15L14 12L17 9V10.999H19V5H13V7H11V5ZM13 13V15H11V13H13ZM13 9V11H11V9H13Z"/></symbol><symbol id="paragraph" viewBox="0 0 24 24"><path d="M12 6V21H10V16C6.68629 16 4 13.3137 4 10C4 6.68629 6.68629 4 10 4H20V6H17V21H15V6H12ZM10 6C7.79086 6 6 7.79086 6 10C6 12.2091 7.79086 14 10 14V6Z"/></symbol><symbol id="quotes" viewBox="0 0 24 24"><path d="M4.58341 17.3211C3.55316 16.2274 3 15 3 13.0103C3 9.51086 5.45651 6.37366 9.03059 4.82318L9.92328 6.20079C6.58804 8.00539 5.93618 10.346 5.67564 11.822C6.21263 11.5443 6.91558 11.4466 7.60471 11.5105C9.40908 11.6778 10.8312 13.159 10.8312 15C10.8312 16.933 9.26416 18.5 7.33116 18.5C6.2581 18.5 5.23196 18.0095 4.58341 17.3211ZM14.5834 17.3211C13.5532 16.2274 13 15 13 13.0103C13 9.51086 15.4565 6.37366 19.0306 4.82318L19.9233 6.20079C16.588 8.00539 15.9362 10.346 15.6756 11.822C16.2126 11.5443 16.9156 11.4466 17.6047 11.5105C19.4091 11.6778 20.8312 13.159 20.8312 15C20.8312 16.933 19.2642 18.5 17.3312 18.5C16.2581 18.5 15.232 18.0095 14.5834 17.3211Z"/></symbol><symbol id="separator" viewBox="0 0 24 24"><path d="M2 11H4V13H2V11ZM6 11H18V13H6V11ZM20 11H22V13H20V11Z"/></symbol><symbol id="source-code" viewBox="0 0 24 24"><path d="M24 12L18.3431 17.6569L16.9289 16.2426L21.1716 12L16.9289 7.75736L18.3431 6.34315L24 12ZM2.82843 12L7.07107 16.2426L5.65685 17.6569L0 12L5.65685 6.34315L7.07107 7.75736L2.82843 12ZM9.78845 21H7.66009L14.2116 3H16.3399L9.78845 21Z"/></symbol><symbol id="strikethrough" viewBox="0 0 24 24"><path d="M17.1538 14C17.3846 14.5161 17.5 15.0893 17.5 15.7196C17.5 17.0625 16.9762 18.1116 15.9286 18.867C14.8809 19.6223 13.4335 20 11.5862 20C9.94674 20 8.32335 19.6185 6.71592 18.8555V16.6009C8.23538 17.4783 9.7908 17.917 11.3822 17.917C13.9333 17.917 15.2128 17.1846 15.2208 15.7196C15.2208 15.0939 15.0049 14.5598 14.5731 14.1173C14.5339 14.0772 14.4939 14.0381 14.4531 14H3V12H21V14H17.1538ZM13.076 11H7.62908C7.4566 10.8433 7.29616 10.6692 7.14776 10.4778C6.71592 9.92084 6.5 9.24559 6.5 8.45207C6.5 7.21602 6.96583 6.165 7.89749 5.299C8.82916 4.43299 10.2706 4 12.2219 4C13.6934 4 15.1009 4.32808 16.4444 4.98426V7.13591C15.2448 6.44921 13.9293 6.10587 12.4978 6.10587C10.0187 6.10587 8.77917 6.88793 8.77917 8.45207C8.77917 8.87172 8.99709 9.23796 9.43293 9.55079C9.86878 9.86362 10.4066 10.1135 11.0463 10.3004C11.6665 10.4816 12.3431 10.7148 13.076 11H13.076Z"/></symbol><symbol id="table-view" viewBox="0 0 24 24"><path d="M3 3C2.44772 3 2 3.44772 2 4V20C2 20.5523 2.44772 21 3 21H21C21.5523 21 22 20.5523 22 20V4C22 3.44772 21.5523 3 21 3H3ZM8 5V8H4V5H8ZM4 14V10H8V14H4ZM4 16H8V19H4V16ZM10 16H20V19H10V16ZM20 14H10V10H20V14ZM20 5V8H10V5H20Z"/></symbol><symbol id="underline" viewBox="0 0 24 24"><path d="M8 3V12C8 14.2091 9.79086 16 12 16C14.2091 16 16 14.2091 16 12V3H18V12C18 15.3137 15.3137 18 12 18C8.68629 18 6 15.3137 6 12V3H8ZM4 20H20V22H4V20Z"/></symbol></svg>
